<?xml version="1.0" encoding="utf-8"?>
<!-- Generator: Adobe Illustrator 21.1.0, SVG Export Plug-In . SVG Version: 6.00 Build 0)  -->
<svg version="1.1" id="Слой_1" xmlns="http://www.w3.org/2000/svg" xmlns:xlink="http://www.w3.org/1999/xlink" x="0px" y="0px"
	 viewBox="0 0 76 40" style="enable-background:new 0 0 76 40;" xml:space="preserve">
<style type="text/css">
	.st0{fill:#FFFFFF;}
	.st1{fill:#09E079;}
</style>
<path class="st0" d="M37.3,11c-0.8-0.8-1.2-1.8-1.2-3c0-1.2,0.4-2.2,1.2-3c0.8-0.8,1.8-1.2,3-1.2c1.2,0,2.2,0.4,3,1.2
	c0.8,0.8,1.2,1.8,1.2,3c0,1.2-0.4,2.2-1.2,3c-0.8,0.8-1.8,1.2-3,1.2C39.1,12.2,38.1,11.8,37.3,11z M38.4,6.2
	c-0.5,0.5-0.7,1.1-0.7,1.9s0.2,1.4,0.7,1.9c0.5,0.5,1.1,0.8,1.8,0.8c0.7,0,1.3-0.3,1.8-0.8c0.5-0.5,0.7-1.1,0.7-1.9
	s-0.2-1.4-0.7-1.9c-0.5-0.5-1.1-0.8-1.8-0.8C39.5,5.4,38.9,5.7,38.4,6.2z"/>
<path class="st0" d="M48.3,4.1v0.8c0.7-0.6,1.5-0.9,2.4-0.9c1.2,0,2.2,0.5,3,1.4c0.5,0.7,0.8,1.6,0.8,2.8V12h-1.6V8
	c0-0.8-0.2-1.4-0.5-1.8c-0.4-0.5-1-0.8-1.7-0.8c-0.9,0-1.7,0.4-2.3,1.1V12h-1.6v-8H48.3z"/>
<path class="st0" d="M57.2,12V0h1.6v12H57.2z"/>
<path class="st0" d="M63.5,16.1h-1.7l2.2-4.9l-3.5-7.1h1.8l2.5,5.2l2.3-5.2h1.7L63.5,16.1z"/>
<path class="st0" d="M41.8,13.2l-0.3,1.5c-0.2,0-0.4-0.1-0.6-0.1c-0.5,0-1,0.2-1.2,0.6c-0.2,0.3-0.3,0.7-0.3,1.4v0.7h2.5v1.4h-2.5
	v6.5h-1.6v-6.5h-1.9v-1.4h1.9v-0.7c0-1,0.2-1.7,0.5-2.2c0.6-0.9,1.5-1.3,2.7-1.3C41.2,13.1,41.5,13.2,41.8,13.2z"/>
<path class="st0" d="M48.2,17.2l-0.2,1.5c-0.2,0-0.4-0.1-0.6-0.1c-0.4,0-0.8,0.1-1.2,0.4c-0.4,0.2-0.7,0.6-0.9,0.9v5.3h-1.6v-8h1.6
	v0.9c0.2-0.3,0.5-0.6,1-0.8c0.4-0.2,0.9-0.3,1.5-0.3C47.8,17.2,48,17.2,48.2,17.2z"/>
<path class="st0" d="M57,21.7h-6.3c0,0.7,0.3,1.2,0.8,1.7c0.5,0.5,1.1,0.7,1.8,0.7c0.9,0,1.7-0.4,2.3-1.1l1.1,1
	c-0.3,0.4-0.8,0.8-1.4,1.1c-0.6,0.3-1.3,0.4-2,0.4c-1.2,0-2.2-0.4-3-1.2c-0.8-0.8-1.2-1.8-1.2-3c0-1.2,0.4-2.2,1.1-3
	c0.7-0.8,1.7-1.2,2.8-1.2c1.1,0,2.1,0.4,2.8,1.2c0.7,0.8,1.1,1.8,1.1,3C57.1,21.5,57,21.6,57,21.7z M53.2,18.6c-0.5,0-1,0.2-1.4,0.5
	c-0.4,0.3-0.7,0.7-0.8,1.2h4.4c-0.1-0.5-0.4-0.9-0.8-1.2C54.1,18.8,53.7,18.6,53.2,18.6z"/>
<path class="st0" d="M58.5,24.4l0.8-1.2c0.8,0.6,1.6,0.9,2.4,0.9c0.4,0,0.7-0.1,1-0.3c0.3-0.2,0.4-0.4,0.4-0.7c0-0.2,0-0.3-0.1-0.4
	c-0.1-0.1-0.2-0.2-0.4-0.3c-0.2-0.1-0.4-0.2-0.6-0.2c-0.2-0.1-0.4-0.1-0.7-0.2c-0.3-0.1-0.5-0.1-0.7-0.2c-1.2-0.4-1.9-1.1-1.9-2
	c0-0.8,0.3-1.4,0.9-1.8c0.6-0.4,1.3-0.6,2.1-0.6c1.1,0,2,0.3,2.7,0.9l-0.8,1.2c-0.6-0.4-1.1-0.6-1.7-0.6c-0.4,0-0.8,0.1-1.1,0.3
	c-0.3,0.2-0.4,0.4-0.4,0.7c0,0.2,0.1,0.4,0.3,0.6c0.2,0.1,0.6,0.2,1.1,0.4c0.4,0.1,0.7,0.2,1,0.3c0.3,0.1,0.6,0.2,0.9,0.4
	c0.3,0.2,0.6,0.4,0.7,0.7c0.2,0.3,0.3,0.6,0.3,1c0,0.7-0.3,1.3-0.9,1.8c-0.6,0.5-1.3,0.7-2.1,0.7C60.5,25.5,59.4,25.1,58.5,24.4z"/>
<path class="st0" d="M68.8,13.3v4.8c0.7-0.6,1.5-0.9,2.4-0.9c1.2,0,2.2,0.5,3,1.4c0.5,0.7,0.8,1.6,0.8,2.8v3.9h-1.6v-4
	c0-0.8-0.2-1.4-0.5-1.8c-0.4-0.5-1-0.8-1.7-0.8c-0.9,0-1.7,0.4-2.3,1.1v5.5h-1.6v-12H68.8z"/>
<path class="st0" d="M38.3,30.7v0.8c0.7-0.6,1.5-0.9,2.4-0.9c1.2,0,2.2,0.5,3,1.4c0.5,0.7,0.8,1.6,0.8,2.8v3.9h-1.6v-4
	c0-0.8-0.2-1.4-0.5-1.8c-0.4-0.5-1-0.8-1.7-0.8c-0.9,0-1.7,0.4-2.3,1.1v5.5h-1.6v-8H38.3z"/>
<path class="st0" d="M54.4,35h-6.3c0,0.7,0.3,1.2,0.8,1.7c0.5,0.5,1.1,0.7,1.8,0.7c0.9,0,1.7-0.4,2.3-1.1l1.1,1
	c-0.3,0.4-0.8,0.8-1.4,1.1c-0.6,0.3-1.3,0.4-2,0.4c-1.2,0-2.2-0.4-3-1.2c-0.8-0.8-1.2-1.8-1.2-3c0-1.2,0.4-2.2,1.1-3
	c0.7-0.8,1.7-1.2,2.8-1.2c1.1,0,2.1,0.4,2.8,1.2c0.7,0.8,1.1,1.8,1.1,3C54.5,34.8,54.5,34.9,54.4,35z M50.6,31.9
	c-0.5,0-1,0.2-1.4,0.5c-0.4,0.3-0.7,0.7-0.8,1.2h4.4c-0.1-0.5-0.4-0.9-0.8-1.2C51.5,32.1,51.1,31.9,50.6,31.9z"/>
<path class="st0" d="M61.5,30.7h1.1l2.2,5.4l2.2-5.4h1.7l-3.3,8h-1.1L62,33l-2.3,5.6h-1.1l-3.3-8H57l2.2,5.4L61.5,30.7z"/>
<path class="st0" d="M69.7,37.7l0.8-1.2c0.8,0.6,1.6,0.9,2.4,0.9c0.4,0,0.7-0.1,1-0.3c0.3-0.2,0.4-0.4,0.4-0.7c0-0.2,0-0.3-0.1-0.4
	c-0.1-0.1-0.2-0.2-0.4-0.3c-0.2-0.1-0.4-0.2-0.6-0.2c-0.2-0.1-0.4-0.1-0.7-0.2c-0.3-0.1-0.5-0.1-0.7-0.2c-1.2-0.4-1.9-1.1-1.9-2
	c0-0.8,0.3-1.4,0.9-1.8c0.6-0.4,1.3-0.6,2.1-0.6c1.1,0,2,0.3,2.7,0.9l-0.8,1.2c-0.6-0.4-1.1-0.6-1.7-0.6c-0.4,0-0.8,0.1-1.1,0.3
	c-0.3,0.2-0.4,0.4-0.4,0.7c0,0.2,0.1,0.4,0.3,0.6c0.2,0.1,0.6,0.2,1.1,0.4c0.4,0.1,0.7,0.2,1,0.3c0.3,0.1,0.6,0.2,0.9,0.4
	c0.3,0.2,0.6,0.4,0.7,0.7c0.2,0.3,0.3,0.6,0.3,1c0,0.7-0.3,1.3-0.9,1.8c-0.6,0.5-1.3,0.7-2.1,0.7C71.7,38.8,70.6,38.4,69.7,37.7z"/>
<path class="st1" d="M29.4,37.7c0,0.4-0.1,0.7-0.2,1c-0.1,0.3-0.3,0.5-0.5,0.7c-0.2,0.2-0.4,0.3-0.7,0.4c-0.3,0.1-0.5,0.1-0.8,0.1
	h-1.7c-0.5,0-1,0-1.4-0.1c-0.4-0.1-0.8-0.3-1.1-0.6c-0.3-0.3-0.7-0.7-1.1-1.2c-0.3-0.5-0.7-1.1-1.1-1.9L8.6,14.4
	c-0.6-1.1-1.3-2.3-2-3.5C6,9.6,5.4,8.4,4.8,7.3H4.8c0,1.4,0.1,2.9,0.1,4.3c0,1.5,0,2.9,0,4.4v23.1c0,0.1,0,0.3-0.1,0.4
	c-0.1,0.1-0.2,0.2-0.4,0.3c-0.2,0.1-0.4,0.1-0.8,0.1C3.3,40,2.9,40,2.4,40c-0.5,0-0.9,0-1.2-0.1c-0.3,0-0.5-0.1-0.7-0.1
	c-0.2-0.1-0.3-0.2-0.4-0.3C0,39.3,0,39.2,0,39.1V3.8C0,3,0.2,2.5,0.7,2.1s0.9-0.5,1.4-0.5h2.5c0.6,0,1.1,0,1.4,0.1
	C6.4,1.9,6.8,2,7.1,2.3C7.4,2.5,7.7,2.8,8,3.2c0.3,0.4,0.6,0.9,1,1.5l9.5,16.8c0.6,1,1.1,2,1.7,3c0.5,1,1.1,1.9,1.6,2.9
	c0.5,0.9,1,1.9,1.5,2.8c0.5,0.9,1,1.8,1.5,2.7h0c0-1.6-0.1-3.2-0.1-4.8c0-1.7,0-3.3,0-4.9V2.5c0-0.1,0-0.3,0.1-0.4
	c0.1-0.1,0.2-0.2,0.4-0.3c0.2-0.1,0.5-0.2,0.8-0.2c0.3,0,0.7-0.1,1.2-0.1c0.4,0,0.8,0,1.1,0.1c0.3,0,0.6,0.1,0.8,0.2
	c0.2,0.1,0.3,0.2,0.4,0.3c0.1,0.1,0.1,0.2,0.1,0.4V37.7z"/>
</svg>
